# xmcd
#
# Track frame offsets: 
#        150
#        17612
#        36571
#        55318
#        73605
#        90085
#        110377
#        125549
#        142517
#        158428
#        175490
#        195542
#
# Disc length: 2796 seconds
#
# Revision: 1
# Processed by: cddbd v1.5.2PL0 Copyright (c) Steve Scherf et al.
# Submitted via: ExactAudioCopyFreeDBPlugin 1.0
#
DISCID=930aea0c
DTITLE=Darden Smith - Field Of Crows
DYEAR=2005
DGENRE=Pop-Folk
TTITLE0=Talk Me Down
TTITLE1=Mary
TTITLE2=Golden Age
TTITLE3=Field Of Crows
TTITLE4=Any Way
TTITLE5=Wide Open
TTITLE6=Spinning Wheel
TTITLE7=Satisfied
TTITLE8=It Takes Two
TTITLE9=Fight For Love
TTITLE10=Boy
TTITLE11=All That I Wanted
EXTD=
EXTT0=
EXTT1=
EXTT2=
EXTT3=
EXTT4=
EXTT5=
EXTT6=
EXTT7=
EXTT8=
EXTT9=
EXTT10=
EXTT11=
PLAYORDER=
